<svg id="Layer_1" data-name="Layer 1" xmlns="http://www.w3.org/2000/svg" xmlns:xlink="http://www.w3.org/1999/xlink" viewBox="0 0 801.23 826.91"><defs><style>.cls-1{fill:none;}.cls-2{clip-path:url(#clip-path);}.cls-3{clip-path:url(#clip-path-2);}.cls-4,.cls-5{fill:#fff;}.cls-5{font-size:24px;font-family:HiraMinProN-W3-83pv-RKSJ-H, Hiragino Mincho ProN;}.cls-6{clip-path:url(#clip-path-3);}.cls-7{clip-path:url(#clip-path-5);}.cls-8{clip-path:url(#clip-path-7);}.cls-9{clip-path:url(#clip-path-9);}.cls-10{clip-path:url(#clip-path-10);}.cls-11{clip-path:url(#clip-path-11);}.cls-12{clip-path:url(#clip-path-13);}.cls-13{clip-path:url(#clip-path-15);}</style><clipPath id="clip-path" transform="translate(423.24 738.78)"><circle class="cls-1" cx="124.5" cy="79.5" r="3.5"/></clipPath><clipPath id="clip-path-2" transform="translate(423.24 738.78)"><rect class="cls-1" x="58" y="-5" width="1024" height="1507"/></clipPath><clipPath id="clip-path-3" transform="translate(423.24 738.78)"><circle class="cls-1" cx="130" cy="67" r="5"/></clipPath><clipPath id="clip-path-5" transform="translate(423.24 738.78)"><circle class="cls-1" cx="135.5" cy="77.5" r="2.5"/></clipPath><clipPath id="clip-path-7" transform="translate(423.24 738.78)"><circle class="cls-1" cx="118.5" cy="69.5" r="2.5"/></clipPath><clipPath id="clip-path-9" transform="translate(423.24 738.78)"><circle class="cls-1" cx="-409.74" cy="-716.28" r="3.5"/></clipPath><clipPath id="clip-path-10" transform="translate(423.24 738.78)"><rect class="cls-1" x="-476.24" y="-800.78" width="1024" height="1507"/></clipPath><clipPath id="clip-path-11" transform="translate(423.24 738.78)"><circle class="cls-1" cx="-404.24" cy="-728.78" r="5"/></clipPath><clipPath id="clip-path-13" transform="translate(423.24 738.78)"><circle class="cls-1" cx="-398.74" cy="-718.28" r="2.5"/></clipPath><clipPath id="clip-path-15" transform="translate(423.24 738.78)"><circle class="cls-1" cx="-415.74" cy="-726.28" r="2.5"/></clipPath></defs><title>logo-dark-mobile</title><g class="cls-2"><g class="cls-3"><rect class="cls-4" x="539.24" y="809.78" width="17" height="17"/></g></g><text class="cls-5" transform="translate(567.84 819.78)">Collocation Creation</text><g class="cls-6"><g class="cls-3"><rect class="cls-4" x="543.24" y="795.78" width="20" height="20"/></g></g><g class="cls-7"><g class="cls-3"><rect class="cls-4" x="551.24" y="808.78" width="15" height="15"/></g></g><g class="cls-8"><g class="cls-3"><rect class="cls-4" x="534.24" y="800.78" width="15" height="15"/></g></g><g class="cls-9"><g class="cls-10"><rect class="cls-4" x="5" y="14" width="17" height="17"/></g></g><g class="cls-11"><g class="cls-10"><rect class="cls-4" x="9" width="20" height="20"/></g></g><g class="cls-12"><g class="cls-10"><rect class="cls-4" x="17" y="13" width="15" height="15"/></g></g><g class="cls-13"><g class="cls-10"><rect class="cls-4" y="5" width="15" height="15"/></g></g></svg>